<?xml version="1.0" encoding="UTF-8" standalone="no"?>
<!-- Created with Inkscape (http://www.inkscape.org/) -->

<svg
   xmlns:dc="http://purl.org/dc/elements/1.1/"
   xmlns:cc="http://creativecommons.org/ns#"
   xmlns:rdf="http://www.w3.org/1999/02/22-rdf-syntax-ns#"
   xmlns:svg="http://www.w3.org/2000/svg"
   xmlns="http://www.w3.org/2000/svg"
   version="1.1"
   width="127.55261"
   height="108.04788"
   id="svg2">
  <defs
     id="defs4" />
  <metadata
     id="metadata7">
    <rdf:RDF>
      <cc:Work
         rdf:about="">
        <dc:format>image/svg+xml</dc:format>
        <dc:type
           rdf:resource="http://purl.org/dc/dcmitype/StillImage" />
        <dc:title></dc:title>
      </cc:Work>
    </rdf:RDF>
  </metadata>
  <g
     transform="translate(-69.558069,-68.09375)"
     id="layer1">
    <path
       d="m 83.337585,70.493908 c 0,0 -17.605179,95.358592 50.002555,93.944192 65.72968,-1.37511 50.50763,-94.449269 50.50763,-94.449269"
       id="path2987"
       style="fill:none;stroke:#000000;stroke-width:23.39999962;stroke-linecap:butt;stroke-linejoin:miter;stroke-miterlimit:4;stroke-opacity:1;stroke-dasharray:none" />
    <path
       d="m 82.327432,100.79848 c 0,0 26.388258,-20.640865 38.385788,-20.203046 16.03848,0.585283 8.26478,11.206257 25.7589,16.16244 14.61089,4.139346 36.87057,-11.111677 36.87057,-11.111677"
       id="path3757"
       style="fill:none;stroke:#000000;stroke-width:10.69999981;stroke-linecap:butt;stroke-linejoin:miter;stroke-miterlimit:4;stroke-opacity:1;stroke-dasharray:none" />
    <path
       d="m 84.347738,116.96092 c 81.317282,-4.54568 91.923882,8.08123 91.923882,8.08123"
       id="path3759"
       style="fill:none;stroke:#000000;stroke-width:10.80000019;stroke-linecap:butt;stroke-linejoin:miter;stroke-miterlimit:4;stroke-opacity:1;stroke-dasharray:none" />
    <path
       d="m 94.954337,138.67921 c 0,0 24.829603,-6.83448 38.893653,-1.95403 14.2917,4.95945 19.98698,19.07952 41.41347,4.98449"
       id="path3761"
       style="fill:none;stroke:#000000;stroke-width:8;stroke-linecap:butt;stroke-linejoin:miter;stroke-miterlimit:4;stroke-opacity:1;stroke-dasharray:none" />
  </g>
</svg>
